<?xml version="1.0" standalone="no"?>
<!DOCTYPE svg PUBLIC "-//W3C//DTD SVG 20010904//EN"
 "http://www.w3.org/TR/2001/REC-SVG-20010904/DTD/svg10.dtd">
<svg version="1.0" xmlns="http://www.w3.org/2000/svg"
 width="500.000000pt" height="500.000000pt" viewBox="0 0 500.000000 500.000000"
 preserveAspectRatio="xMidYMid meet">

<g transform="translate(0.000000,500.000000) scale(0.100000,-0.100000)"
fill="#000000" stroke="none">
<path d="M1192 3808 c154 -225 166 -243 466 -678 164 -237 236 -342 296 -430
35 -52 105 -154 155 -227 l90 -131 -52 -59 c-29 -33 -86 -99 -127 -148 -41
-48 -110 -129 -154 -179 -43 -50 -88 -102 -100 -116 -12 -14 -143 -166 -291
-338 -149 -172 -292 -340 -318 -373 l-49 -59 115 0 114 0 76 88 c253 293 336
389 367 427 19 23 93 109 164 191 70 82 138 160 150 174 11 14 63 74 114 133
l94 107 32 -42 c18 -24 55 -77 82 -118 28 -41 92 -136 144 -210 51 -74 126
-182 165 -240 40 -58 116 -168 169 -245 54 -77 116 -168 138 -203 l40 -62 409
0 c225 0 409 2 409 5 0 2 -41 64 -92 137 -50 73 -119 174 -153 223 -34 50
-104 151 -155 225 -51 74 -121 176 -155 225 -33 50 -108 158 -165 240 -137
198 -202 293 -268 389 -29 44 -74 108 -99 143 l-45 63 64 77 c34 42 84 100
109 127 44 49 477 552 569 661 154 182 251 295 260 300 5 3 15 15 20 26 10 18
7 19 -104 19 l-114 0 -329 -382 c-180 -209 -344 -400 -363 -423 -112 -135
-212 -245 -220 -240 -4 3 -35 44 -67 93 -33 48 -106 155 -163 237 -58 83 -135
195 -172 250 -38 55 -109 159 -159 230 -50 72 -107 154 -126 183 l-36 52 -409
0 -408 0 82 -122z m796 -288 c85 -124 232 -337 327 -475 94 -137 201 -293 237
-345 36 -52 194 -282 351 -510 157 -228 363 -526 457 -663 94 -136 173 -254
176 -262 5 -13 -19 -15 -177 -15 l-184 0 -47 68 c-26 37 -166 240 -312 452
-146 212 -333 484 -416 605 -83 121 -329 478 -546 793 -217 315 -394 575 -394
577 0 3 84 4 187 3 l186 -3 155 -225z"/>
</g>
</svg>
